<?xml version="1.0" encoding="UTF-8"?>
<svg id="Calque_1" data-name="Calque 1" xmlns="http://www.w3.org/2000/svg" xmlns:xlink="http://www.w3.org/1999/xlink" viewBox="0 0 600 600">
  <defs>
    <style>
      .cls-1 {
        stroke: #fc8516;
        stroke-width: 6px;
      }

      .cls-1, .cls-2 {
        stroke-miterlimit: 10;
      }

      .cls-1, .cls-3 {
        fill: #fc8516;
      }

      .cls-2 {
        stroke: #031744;
        stroke-width: 4.72px;
      }

      .cls-2, .cls-4, .cls-5 {
        fill: #031744;
      }

      .cls-3, .cls-6, .cls-5 {
        stroke-width: 0px;
      }

      .cls-7 {
        clip-path: url(#clippath-2);
      }

      .cls-6 {
        fill: none;
      }

      .cls-8 {
        clip-path: url(#clippath);
      }

      .cls-9 {
        clip-path: url(#clippath-5);
      }
    </style>
    <clipPath id="clippath">
      <rect class="cls-6" x="125.57" y="275.59" width="31.24" height="23.48" transform="translate(-127.99 114.03) rotate(-31.06)"/>
    </clipPath>
    <clipPath id="clippath-2">
      <rect class="cls-5" x="119.76" y="308.25" width="9.86" height="2.51" transform="translate(-141.8 108.69) rotate(-31.06)"/>
    </clipPath>
    <clipPath id="clippath-5">
      <rect class="cls-5" x="138.87" y="308.37" width="2.51" height="10.09" transform="translate(-141.6 117.22) rotate(-31.06)"/>
    </clipPath>
  </defs>
  <path class="cls-2" d="m150.84,267.89v-41.38c0-3.14-2.12-5.71-4.7-5.71H59.5c-2.59,0-4.7,2.57-4.7,5.71v117.48c0,3.14,2.12,5.71,4.7,5.71h86.64c2.59,0,4.7-2.57,4.7-5.71v-17.6h-5.88v10.46c0,3.14-2.12,5.71-4.7,5.71h-74.49c-2.59,0-4.7-2.57-4.7-5.71v-103.22c0-3.14,2.12-5.71,4.7-5.71h74.49c2.59,0,4.7,2.57,4.7,5.71v34.25h5.88Z"/>
  <circle class="cls-3" cx="102.26" cy="252.82" r="8.89"/>
  <g class="cls-8">
    <path class="cls-3" d="m137.38,276.43l-3.87,27.05c-.05.37.11.73.42.94.31.21.71.22,1.03.03l24.65-14.85c.36-.22.54-.65.43-1.06-.02-.09-.06-.18-.11-.26-.16-.27-.45-.45-.78-.47l-13.32-.63-6.69-11.1c-.21-.35-.61-.53-1.01-.45-.4.08-.7.4-.76.8Z"/>
  </g>
  <g>
    <g>
      <rect class="cls-4" x="119.76" y="308.25" width="9.86" height="2.51" transform="translate(-141.8 108.69) rotate(-31.06)"/>
      <g class="cls-7">
        <path class="cls-5" d="m120.5,312.03c.27.46.87.6,1.32.33l6.57-3.96c.45-.27.6-.87.33-1.32s-.87-.6-1.32-.33l-6.57,3.96c-.45.27-.6.87-.33,1.32Z"/>
      </g>
    </g>
    <g>
      <rect class="cls-4" x="138.87" y="308.37" width="2.51" height="10.09" transform="translate(-141.6 117.22) rotate(-31.06)"/>
      <g class="cls-9">
        <path class="cls-5" d="m137.62,310.71l3.97,6.6c.27.45.86.6,1.32.33s.6-.87.33-1.32l-3.97-6.6c-.27-.46-.87-.6-1.32-.33-.45.27-.6.86-.32,1.32Z"/>
      </g>
    </g>
    <path class="cls-5" d="m125.7,290.92l3.97,6.6c.27.46.86.6,1.32.33.45-.27.6-.87.33-1.32l-3.97-6.6c-.27-.46-.87-.6-1.32-.33s-.6.86-.32,1.32Z"/>
    <path class="cls-5" d="m131.7,310.84l-1.84,7.47c-.13.51.19,1.04.7,1.17.51.13,1.04-.19,1.16-.7l1.84-7.46c.06-.26.02-.52-.11-.73s-.33-.38-.59-.44c-.51-.13-1.04.19-1.16.7Z"/>
    <path class="cls-5" d="m118.62,299.65c-.13.51.19,1.04.7,1.17l7.46,1.87c.51.13,1.03-.18,1.16-.7.06-.26.02-.52-.11-.73s-.33-.38-.59-.44l-7.46-1.87c-.52-.13-1.04.18-1.16.7Z"/>
  </g>
  <path class="cls-5" d="m93.37,321.56l17.78-17.56v-33.78h-17.78v51.34Z"/>
  <polygon class="cls-3" points="111.12 309.9 111.12 332.69 93.34 332.69 93.34 327.69 111.12 309.9"/>
  <line class="cls-6" x1="174.37" y1="238.52" x2="168.38" y2="244.52"/>
  <g>
    <path class="cls-5" d="m175.32,308.56c.54,3.85,1.62,6.73,3.21,8.63,2.92,3.47,7.92,5.2,15,5.2,4.24,0,7.69-.46,10.33-1.37,5.02-1.75,7.53-5.01,7.53-9.78,0-2.78-1.23-4.94-3.69-6.46-2.46-1.49-6.36-2.8-11.7-3.95l-9.12-2c-8.97-1.98-15.13-4.13-18.48-6.46-5.68-3.89-8.52-9.97-8.52-18.24,0-7.55,2.78-13.81,8.33-18.81,5.56-4.99,13.72-7.49,24.48-7.49,8.99,0,16.66,2.35,23,7.06,6.35,4.71,9.67,11.54,9.98,20.49h-16.92c-.31-5.07-2.58-8.67-6.8-10.8-2.81-1.41-6.31-2.12-10.49-2.12-4.65,0-8.36.91-11.14,2.74-2.77,1.83-4.16,4.38-4.16,7.66,0,3.01,1.37,5.26,4.1,6.75,1.76.99,5.49,2.15,11.19,3.49l14.79,3.49c6.48,1.52,11.34,3.56,14.57,6.12,5.02,3.96,7.53,9.7,7.53,17.21s-2.98,14.09-8.93,19.18-14.36,7.63-25.22,7.63-19.82-2.51-26.18-7.52-9.53-11.9-9.53-20.67h16.81Z"/>
    <path class="cls-5" d="m264.08,296.67c3.03-.38,5.2-.86,6.51-1.43,2.34-.99,3.51-2.53,3.51-4.63,0-2.55-.9-4.32-2.7-5.29-1.8-.97-4.43-1.46-7.91-1.46-3.9,0-6.66.95-8.29,2.86-1.16,1.41-1.93,3.32-2.32,5.72h-15.72c.34-5.45,1.87-9.93,4.59-13.43,4.33-5.49,11.75-8.23,22.28-8.23,6.85,0,12.94,1.35,18.26,4.06,5.32,2.71,7.98,7.81,7.98,15.32v28.58c0,1.98.04,4.38.12,7.2.12,2.14.44,3.58.97,4.34.53.76,1.33,1.39,2.4,1.89v2.4h-17.72c-.5-1.26-.84-2.44-1.03-3.54-.19-1.11-.34-2.36-.46-3.77-2.26,2.44-4.87,4.52-7.82,6.23-3.53,2.02-7.51,3.03-11.96,3.03-5.67,0-10.36-1.61-14.06-4.83-3.7-3.22-5.55-7.78-5.55-13.69,0-7.66,2.98-13.21,8.93-16.64,3.26-1.87,8.06-3.2,14.4-4l5.59-.69Zm9.96,7.6c-1.04.65-2.1,1.17-3.16,1.57-1.06.4-2.52.77-4.38,1.11l-3.71.69c-3.48.61-5.97,1.35-7.49,2.23-2.57,1.49-3.85,3.79-3.85,6.92,0,2.78.78,4.79,2.35,6.03,1.57,1.24,3.47,1.86,5.72,1.86,3.56,0,6.84-1.03,9.84-3.09,3-2.06,4.56-5.81,4.67-11.26v-6.06Z"/>
    <path class="cls-5" d="m339.13,270.8c.21.02.68.05,1.4.09v16.69c-1.03-.11-1.94-.19-2.74-.23-.8-.04-1.45-.06-1.94-.06-6.56,0-10.96,2.13-13.21,6.4-1.26,2.4-1.89,6.1-1.89,11.09v29.78h-16.41v-62.31h15.55v10.86c2.52-4.15,4.71-6.99,6.57-8.52,3.05-2.55,7.01-3.83,11.89-3.83.3,0,.56,0,.77.03Z"/>
    <path class="cls-5" d="m374.76,296.67c3.03-.38,5.2-.86,6.51-1.43,2.34-.99,3.51-2.53,3.51-4.63,0-2.55-.9-4.32-2.7-5.29-1.8-.97-4.43-1.46-7.91-1.46-3.9,0-6.66.95-8.29,2.86-1.16,1.41-1.93,3.32-2.32,5.72h-15.72c.34-5.45,1.88-9.93,4.59-13.43,4.33-5.49,11.75-8.23,22.28-8.23,6.85,0,12.94,1.35,18.26,4.06,5.32,2.71,7.98,7.81,7.98,15.32v28.58c0,1.98.04,4.38.12,7.2.11,2.14.44,3.58.97,4.34.53.76,1.33,1.39,2.4,1.89v2.4h-17.72c-.5-1.26-.84-2.44-1.03-3.54s-.34-2.36-.46-3.77c-2.26,2.44-4.87,4.52-7.82,6.23-3.53,2.02-7.51,3.03-11.96,3.03-5.67,0-10.36-1.61-14.06-4.83-3.7-3.22-5.55-7.78-5.55-13.69,0-7.66,2.98-13.21,8.93-16.64,3.26-1.87,8.06-3.2,14.4-4l5.59-.69Zm9.96,7.6c-1.04.65-2.1,1.17-3.16,1.57-1.06.4-2.52.77-4.38,1.11l-3.71.69c-3.48.61-5.97,1.35-7.49,2.23-2.57,1.49-3.85,3.79-3.85,6.92,0,2.78.78,4.79,2.35,6.03,1.57,1.24,3.47,1.86,5.72,1.86,3.56,0,6.84-1.03,9.84-3.09,3-2.06,4.56-5.81,4.67-11.26v-6.06Z"/>
    <path class="cls-5" d="m417.65,346.52l2.06.11c1.6.08,3.12.02,4.57-.17,1.45-.19,2.67-.63,3.66-1.31.95-.65,1.84-2,2.66-4.06.82-2.06,1.17-3.32,1.06-3.77l-22.9-65.06h18.12l13.61,45.96,12.86-45.96h17.32l-21.36,61.28c-4.13,11.81-7.39,19.14-9.8,21.98-2.4,2.84-7.21,4.26-14.42,4.26-1.45,0-2.61,0-3.49-.03-.88-.02-2.2-.09-3.95-.2v-13.03Z"/>
    <path class="cls-5" d="m504.99,296.67c3.03-.38,5.2-.86,6.51-1.43,2.34-.99,3.51-2.53,3.51-4.63,0-2.55-.9-4.32-2.7-5.29-1.8-.97-4.43-1.46-7.91-1.46-3.9,0-6.66.95-8.29,2.86-1.16,1.41-1.93,3.32-2.32,5.72h-15.72c.34-5.45,1.88-9.93,4.59-13.43,4.33-5.49,11.75-8.23,22.28-8.23,6.85,0,12.94,1.35,18.26,4.06,5.32,2.71,7.98,7.81,7.98,15.32v28.58c0,1.98.04,4.38.12,7.2.11,2.14.44,3.58.97,4.34.53.76,1.33,1.39,2.4,1.89v2.4h-17.72c-.5-1.26-.84-2.44-1.03-3.54s-.34-2.36-.46-3.77c-2.26,2.44-4.87,4.52-7.82,6.23-3.53,2.02-7.51,3.03-11.96,3.03-5.67,0-10.36-1.61-14.06-4.83-3.7-3.22-5.55-7.78-5.55-13.69,0-7.66,2.98-13.21,8.93-16.64,3.26-1.87,8.06-3.2,14.4-4l5.59-.69Zm9.96,7.6c-1.04.65-2.1,1.17-3.16,1.57-1.06.4-2.52.77-4.38,1.11l-3.71.69c-3.48.61-5.97,1.35-7.49,2.23-2.57,1.49-3.85,3.79-3.85,6.92,0,2.78.78,4.79,2.35,6.03,1.57,1.24,3.47,1.86,5.72,1.86,3.56,0,6.84-1.03,9.84-3.09,3-2.06,4.56-5.81,4.67-11.26v-6.06Z"/>
  </g>
  <path class="cls-1" d="m496.14,265.66c0-20.54-16.65-37.19-37.19-37.19s-37.19,16.65-37.19,37.19h0s-11.08,0-11.08,0h0c0-26.66,21.61-48.28,48.28-48.28s48.28,21.61,48.28,48.28h0s-11.08,0-11.08,0h0Z"/>
</svg>